<svg width="133" height="133" viewBox="0 0 133 133" fill="none" xmlns="http://www.w3.org/2000/svg">
<g clip-path="url(#clip0_443_782)">
<path d="M39.228 64.3712C34.9794 64.3712 31.6025 67.748 31.6025 72.1526C31.6025 75.401 33.5662 77.9519 36.0622 78.1813L37.4661 74.4375C35.9888 74.2631 35.1813 73.2446 35.1813 71.7855C35.1813 69.7484 36.7963 68.271 38.9252 68.271C40.7145 68.271 41.9258 69.4272 41.9258 71.1524C41.9258 72.437 41.2559 73.4556 40.0079 74.0154L41.4303 77.3004C43.9445 76.2085 45.5045 73.7309 45.5045 70.7486C45.5045 66.968 42.9719 64.3712 39.2463 64.3712H39.228Z" fill="#4E3FA6"/>
<path d="M88.7796 39.0265C88.1739 37.7326 86.8526 36.8884 85.4211 36.8884H47.661C46.2295 36.8884 44.9081 37.7235 44.3025 39.0265L36.1724 56.4062H96.9189L88.7888 39.0265H88.7796Z" fill="#4E3FA6"/>
<path d="M92.8813 64.3712C88.6327 64.3712 85.2559 67.748 85.2559 72.1526C85.2559 75.401 87.2196 77.9519 89.7155 78.1813L91.1195 74.4375C89.6421 74.2631 88.8346 73.2446 88.8346 71.7855C88.8346 69.7484 90.4496 68.271 92.5785 68.271C94.3678 68.271 95.5791 69.4272 95.5791 71.1524C95.5791 72.437 94.9092 73.4556 93.6613 74.0154L95.0836 77.3004C97.5979 76.2085 99.1578 73.7309 99.1578 70.7486C99.1578 66.968 96.6252 64.3712 92.8996 64.3712H92.8813Z" fill="#4E3FA6"/>
<path d="M66.5 0C29.7768 0 0 29.7768 0 66.5C0 103.223 29.7768 133 66.5 133C103.223 133 133 103.223 133 66.5C133 29.7768 103.223 0 66.5 0ZM113.115 61.4072L108.004 62.3891C108.077 62.8112 108.123 63.2333 108.123 63.6737V82.9071C108.123 82.9071 108.123 82.9346 108.123 82.9529V98.7727C108.123 101.021 106.297 102.838 104.058 102.838H97.4881C95.2399 102.838 93.423 101.012 93.423 98.7727V90.8445H39.5036V98.7727C39.5036 101.021 37.6775 102.838 35.4385 102.838H28.8684C26.6202 102.838 24.8033 101.012 24.8033 98.7727V83.5953C24.8033 83.5953 24.8033 83.5769 24.8033 83.5677V63.6737C24.8033 63.2241 24.8492 62.7928 24.9226 62.3707L19.9032 61.4072C19.114 61.2512 18.5176 60.3519 18.5176 59.2783V55.305C18.5176 54.1213 19.2425 53.1578 20.1326 53.1578H30.2631L38.2189 36.1634C39.9257 32.5113 43.6421 30.1439 47.6796 30.1439H85.4397C89.4772 30.1439 93.1936 32.5021 94.9004 36.1634L102.856 53.1578H112.904C113.794 53.1578 114.519 54.1213 114.519 55.305V59.2783C114.519 60.3428 113.932 61.2512 113.134 61.4072H113.115Z" fill="#4E3FA6"/>
</g>
<defs>
<clipPath id="clip0_443_782">
<rect width="133" height="133" fill="white"/>
</clipPath>
</defs>
</svg>
