<svg width="24" height="24" viewBox="0 0 24 24" fill="none" xmlns="http://www.w3.org/2000/svg">
    <path
        d="M7.07873 11.6158C6.31206 11.6158 5.7027 12.2252 5.7027 13.02C5.7027 13.6062 6.05705 14.0665 6.50746 14.1079L6.76079 13.4323C6.49421 13.4008 6.3485 13.2171 6.3485 12.9538C6.3485 12.5862 6.63992 12.3196 7.02409 12.3196C7.34697 12.3196 7.56555 12.5282 7.56555 12.8395C7.56555 13.0713 7.44466 13.2551 7.21946 13.3562L7.47614 13.9489C7.92983 13.7519 8.21133 13.3048 8.21133 12.7667C8.21133 12.0844 7.75432 11.6158 7.08203 11.6158H7.07873Z"
        fill="#4E3FA6" />
    <path
        d="M16.0204 7.04232C15.9111 6.80883 15.6726 6.65649 15.4143 6.65649H8.60047C8.34216 6.65649 8.10371 6.80719 7.99443 7.04232L6.52734 10.1785H17.4891L16.022 7.04232H16.0204Z"
        fill="#4E3FA6" />
    <path
        d="M16.7605 11.6158C15.9939 11.6158 15.3845 12.2252 15.3845 13.02C15.3845 13.6062 15.7389 14.0665 16.1893 14.1079L16.4426 13.4323C16.176 13.4008 16.0303 13.2171 16.0303 12.9538C16.0303 12.5862 16.3217 12.3196 16.7059 12.3196C17.0288 12.3196 17.2474 12.5282 17.2474 12.8395C17.2474 13.0713 17.1265 13.2551 16.9013 13.3562L17.1579 13.9489C17.6117 13.7519 17.8931 13.3048 17.8931 12.7667C17.8931 12.0844 17.4361 11.6158 16.7638 11.6158H16.7605Z"
        fill="#4E3FA6" />
    <path
        d="M12 0C5.37326 0 0 5.37326 0 12C0 18.6267 5.37326 24 12 24C18.6267 24 24 18.6267 24 12C24 5.37326 18.6267 0 12 0ZM20.4117 11.081L19.4894 11.2582C19.5026 11.3344 19.5109 11.4105 19.5109 11.49V14.9607C19.5109 14.9607 19.5109 14.9656 19.5109 14.9689V17.8236C19.5109 18.2294 19.1814 18.5572 18.7774 18.5572H17.5918C17.1861 18.5572 16.8583 18.2277 16.8583 17.8236V16.393H7.12847V17.8236C7.12847 18.2294 6.79895 18.5572 6.39492 18.5572H5.20934C4.80365 18.5572 4.47578 18.2277 4.47578 17.8236V15.0849C4.47578 15.0849 4.47578 15.0815 4.47578 15.0799V11.49C4.47578 11.4089 4.48407 11.331 4.49731 11.2549L3.59155 11.081C3.44914 11.0528 3.34152 10.8906 3.34152 10.6968V9.97985C3.34152 9.76625 3.47233 9.59238 3.63295 9.59238H5.46101L6.89664 6.52573C7.20464 5.8667 7.87527 5.4395 8.60384 5.4395H15.4177C16.1463 5.4395 16.8169 5.86504 17.1249 6.52573L18.5605 9.59238H20.3737C20.5343 9.59238 20.6651 9.76625 20.6651 9.97985V10.6968C20.6651 10.8889 20.5592 11.0528 20.4152 11.081H20.4117Z"
        fill="#4E3FA6" />
</svg>