<svg width="30" height="30" viewBox="0 0 30 30" fill="none" xmlns="http://www.w3.org/2000/svg">
<path d="M22.08 12.1875L21.8269 12.0975L19.6987 8.1075C19.299 7.35767 18.703 6.73059 17.9745 6.29332C17.2459 5.85605 16.4122 5.62505 15.5625 5.625H10.2037C9.2197 5.62496 8.2606 5.93461 7.46235 6.51008C6.66411 7.08554 6.06721 7.89762 5.75625 8.83125L4.74188 11.8744C3.89204 12.2326 3.16675 12.8335 2.6568 13.6019C2.14685 14.3704 1.8749 15.2721 1.875 16.1944V18.2812C1.875 19.6125 2.66812 20.7563 3.80625 21.2719C3.95364 22.1163 4.38589 22.8848 5.03102 23.4493C5.67615 24.0138 6.4952 24.3402 7.35175 24.3742C8.2083 24.4082 9.05064 24.1476 9.73846 23.636C10.4263 23.1244 10.9181 22.3926 11.1319 21.5625H18.8681C19.0819 22.3926 19.5737 23.1244 20.2615 23.636C20.9494 24.1476 21.7917 24.4082 22.6482 24.3742C23.5048 24.3402 24.3239 24.0138 24.969 23.4493C25.6141 22.8848 26.0464 22.1163 26.1938 21.2719C26.7693 21.0121 27.2576 20.5917 27.6002 20.0612C27.9428 19.5308 28.125 18.9127 28.125 18.2812V17.6456C28.1249 16.678 27.8253 15.7341 27.2673 14.9435C26.7094 14.1529 25.9204 13.5544 25.0088 13.23L22.1775 12.2231V12.1875H22.08ZM10.2037 7.5H12.1875V12.1875H6.61312L7.53375 9.42375C7.72041 8.86333 8.07877 8.37591 8.55802 8.03061C9.03727 7.68531 9.61306 7.49966 10.2037 7.5ZM14.0625 7.5H15.5625C16.0724 7.49982 16.5727 7.63825 17.01 7.90048C17.4473 8.16271 17.805 8.53888 18.045 8.98875L19.7513 12.1875H14.0625V7.5ZM21.7556 14.0625L24.3806 14.9963C24.9276 15.1909 25.4008 15.5501 25.7355 16.0244C26.0702 16.4988 26.2499 17.0651 26.25 17.6456V18.2812C26.25 18.6094 26.1375 18.9112 25.95 19.1512C25.6429 18.4304 25.1176 17.8238 24.4481 17.4167C23.7785 17.0097 22.9983 16.8226 22.2169 16.8818C21.4356 16.9409 20.6924 17.2434 20.0917 17.7466C19.4911 18.2498 19.0632 18.9286 18.8681 19.6875H11.1319C10.9368 18.9286 10.5089 18.2498 9.90826 17.7466C9.30762 17.2434 8.56443 16.9409 7.78309 16.8818C7.00174 16.8226 6.22149 17.0097 5.55193 17.4167C4.88236 17.8238 4.35713 18.4304 4.05 19.1512C3.85525 18.9031 3.74959 18.5967 3.75 18.2812V16.1944C3.75 15.3506 4.125 14.5819 4.725 14.0625H21.7556ZM5.625 20.625C5.625 20.1277 5.82254 19.6508 6.17417 19.2992C6.52581 18.9475 7.00272 18.75 7.5 18.75C7.99728 18.75 8.47419 18.9475 8.82582 19.2992C9.17746 19.6508 9.375 20.1277 9.375 20.625C9.375 21.1223 9.17746 21.5992 8.82582 21.9508C8.47419 22.3025 7.99728 22.5 7.5 22.5C7.00272 22.5 6.52581 22.3025 6.17417 21.9508C5.82254 21.5992 5.625 21.1223 5.625 20.625ZM22.5 18.75C22.9973 18.75 23.4742 18.9475 23.8258 19.2992C24.1775 19.6508 24.375 20.1277 24.375 20.625C24.375 21.1223 24.1775 21.5992 23.8258 21.9508C23.4742 22.3025 22.9973 22.5 22.5 22.5C22.0027 22.5 21.5258 22.3025 21.1742 21.9508C20.8225 21.5992 20.625 21.1223 20.625 20.625C20.625 20.1277 20.8225 19.6508 21.1742 19.2992C21.5258 18.9475 22.0027 18.75 22.5 18.75Z" fill="black"/>
</svg>
