<svg width="24" height="24" viewBox="0 0 24 24" fill="none" xmlns="http://www.w3.org/2000/svg">
    <path
        d="M12 24C18.6274 24 24 18.6274 24 12C24 5.37259 18.6274 0 12 0C5.37259 0 0 5.37259 0 12C0 18.6274 5.37259 24 12 24Z"
        fill="#F2C641" />
    <path
        d="M9.71983 12.977C9.71983 14.6759 8.8323 16.09 7.39501 16.7159L6.58364 14.8415C7.29565 14.5235 7.67981 13.9423 7.67981 13.2071C7.67981 12.2203 6.98932 11.5629 5.96932 11.5629C4.75226 11.5629 3.8316 12.4074 3.8316 13.5698C3.8316 14.4027 4.29193 14.9839 5.13643 15.0832L4.33665 17.2209C2.91094 17.0901 1.79324 15.6313 1.79324 13.7784C1.79324 11.2681 3.72232 9.3374 6.1465 9.3374C8.27427 9.3374 9.72149 10.8177 9.72149 12.977H9.71983Z"
        fill="white" />
    <path
        d="M6.62338 12.8031C6.4992 12.8031 6.39984 13.0531 6.39984 13.3628C6.39984 13.6724 6.4992 13.9225 6.62338 13.9225C6.74757 13.9225 6.84693 13.6724 6.84693 13.3628C6.84693 13.0531 6.74757 12.8031 6.62338 12.8031Z"
        fill="white" />
    <path
        d="M5.9809 12.9537C5.85669 12.9537 5.75735 13.2038 5.75735 13.5134C5.75735 13.8231 5.85669 14.0731 5.9809 14.0731C6.10508 14.0731 6.20444 13.8231 6.20444 13.5134C6.20444 13.2038 6.10508 12.9537 5.9809 12.9537Z"
        fill="white" />
    <path
        d="M14.8067 5.25896C14.8067 6.95787 13.9191 8.37198 12.4818 8.99789L11.6704 7.12346C12.3825 6.80554 12.7666 6.22432 12.7666 5.48913C12.7666 4.50224 12.0761 3.84486 11.0561 3.84486C9.83907 3.84486 8.91842 4.68935 8.91842 5.85176C8.91842 6.68465 9.37876 7.26585 10.2232 7.36521L9.42345 9.50292C7.99776 9.37211 6.88007 7.91329 6.88007 6.0604C6.88007 3.55011 8.80913 1.61938 11.2333 1.61938C13.3611 1.61938 14.8083 3.09972 14.8083 5.25896H14.8067Z"
        fill="white" />
    <path
        d="M11.7101 5.08521C11.5859 5.08521 11.4866 5.33524 11.4866 5.64487C11.4866 5.95453 11.5859 6.20456 11.7101 6.20456C11.8343 6.20456 11.9337 5.95453 11.9337 5.64487C11.9337 5.33524 11.8343 5.08521 11.7101 5.08521Z"
        fill="white" />
    <path
        d="M11.0677 5.23413C10.9435 5.23413 10.8441 5.48416 10.8441 5.79382C10.8441 6.10345 10.9435 6.35349 11.0677 6.35349C11.1919 6.35349 11.2912 6.10345 11.2912 5.79382C11.2912 5.48416 11.1919 5.23413 11.0677 5.23413Z"
        fill="white" />
    <path
        d="M15.8896 8.88538C19.294 8.88538 22.0064 11.5977 22.0064 15.1263C22.0064 17.731 20.435 19.7793 18.4313 19.9648L17.307 16.961C18.4926 16.8219 19.1401 16.0056 19.1401 14.8349C19.1401 13.2022 17.8452 12.0149 16.1363 12.0149C14.704 12.0149 13.732 12.9389 13.732 14.3265C13.732 15.3581 14.2718 16.1761 15.2736 16.6215L14.1327 19.256C12.1143 18.3784 10.8658 16.3897 10.8658 14.002C10.8658 10.9668 12.8991 8.88702 15.888 8.88702L15.8896 8.88538Z"
        fill="white" />
    <path
        d="M15.2172 13.7552C15.3911 13.7552 15.5319 14.108 15.5319 14.5418C15.5319 14.9756 15.3911 15.3283 15.2172 15.3283C15.0434 15.3283 14.9026 14.9756 14.9026 14.5418C14.9026 14.108 15.0434 13.7552 15.2172 13.7552Z"
        fill="white" />
    <path
        d="M16.1213 13.9672C16.2952 13.9672 16.436 14.3199 16.436 14.7537C16.436 15.1875 16.2952 15.5402 16.1213 15.5402C15.9475 15.5402 15.8067 15.1875 15.8067 14.7537C15.8067 14.3199 15.9475 13.9672 16.1213 13.9672Z"
        fill="white" />
</svg>