<svg width="133" height="133" viewBox="0 0 133 133" fill="none" xmlns="http://www.w3.org/2000/svg">
<g clip-path="url(#clip0_443_804)">
<path d="M66.5 133C103.227 133 133 103.227 133 66.5C133 29.7731 103.227 0 66.5 0C29.7731 0 0 29.7731 0 66.5C0 103.227 29.7731 133 66.5 133Z" fill="#F2C641"/>
<path d="M53.864 71.914C53.864 81.3288 48.9456 89.1653 40.9806 92.6339L36.4843 82.2464C40.43 80.4846 42.5589 77.2637 42.5589 73.1895C42.5589 67.7205 38.7324 64.0775 33.0799 64.0775C26.3354 64.0775 21.2334 68.7574 21.2334 75.1991C21.2334 79.8147 23.7844 83.0356 28.4643 83.5861L24.0322 95.4326C16.1314 94.7077 9.9375 86.6235 9.9375 76.3553C9.9375 62.4442 20.6278 51.7447 34.0618 51.7447C45.8532 51.7447 53.8732 59.9482 53.8732 71.914H53.864Z" fill="white"/>
<path d="M36.7046 70.9505C36.0164 70.9505 35.4658 72.3361 35.4658 74.0521C35.4658 75.768 36.0164 77.1536 36.7046 77.1536C37.3928 77.1536 37.9434 75.768 37.9434 74.0521C37.9434 72.3361 37.3928 70.9505 36.7046 70.9505Z" fill="white"/>
<path d="M33.1441 71.7856C32.4558 71.7856 31.9053 73.1712 31.9053 74.8871C31.9053 76.6031 32.4558 77.9887 33.1441 77.9887C33.8323 77.9887 34.3829 76.6031 34.3829 74.8871C34.3829 73.1712 33.8323 71.7856 33.1441 71.7856Z" fill="white"/>
<path d="M82.0535 29.1437C82.0535 38.5585 77.135 46.395 69.1701 49.8636L64.6737 39.4761C68.6195 37.7143 70.7484 34.4934 70.7484 30.4192C70.7484 24.9502 66.9219 21.3072 61.2694 21.3072C54.5248 21.3072 49.4229 25.9871 49.4229 32.4288C49.4229 37.0444 51.9739 40.2652 56.6537 40.8158L52.2216 52.6623C44.3209 51.9374 38.127 43.8531 38.127 33.585C38.127 19.6738 48.8172 8.97437 62.2512 8.97437C74.0426 8.97437 82.0627 17.1779 82.0627 29.1437H82.0535Z" fill="white"/>
<path d="M64.8936 28.1802C64.2054 28.1802 63.6548 29.5658 63.6548 31.2817C63.6548 32.9977 64.2054 34.3833 64.8936 34.3833C65.5818 34.3833 66.1324 32.9977 66.1324 31.2817C66.1324 29.5658 65.5818 28.1802 64.8936 28.1802Z" fill="white"/>
<path d="M61.3335 29.0061C60.6453 29.0061 60.0947 30.3917 60.0947 32.1077C60.0947 33.8236 60.6453 35.2092 61.3335 35.2092C62.0217 35.2092 62.5723 33.8236 62.5723 32.1077C62.5723 30.3917 62.0217 29.0061 61.3335 29.0061Z" fill="white"/>
<path d="M88.055 49.2396C106.921 49.2396 121.952 64.2702 121.952 83.8247C121.952 98.2589 113.244 109.61 102.14 110.638L95.9098 93.9919C102.48 93.2211 106.068 88.6973 106.068 82.2097C106.068 73.1619 98.8921 66.5826 89.4222 66.5826C81.4848 66.5826 76.0984 71.7029 76.0984 79.3926C76.0984 85.1094 79.0898 89.6424 84.6414 92.1108L78.319 106.71C67.1332 101.847 60.2144 90.8261 60.2144 77.5941C60.2144 60.7741 71.4827 49.2487 88.0458 49.2487L88.055 49.2396Z" fill="white"/>
<path d="M84.3289 76.2267C85.2924 76.2267 86.0724 78.1813 86.0724 80.5854C86.0724 82.9896 85.2924 84.9441 84.3289 84.9441C83.3654 84.9441 82.5854 82.9896 82.5854 80.5854C82.5854 78.1813 83.3654 76.2267 84.3289 76.2267Z" fill="white"/>
<path d="M89.3392 77.4014C90.3027 77.4014 91.0827 79.3559 91.0827 81.7601C91.0827 84.1642 90.3027 86.1188 89.3392 86.1188C88.3757 86.1188 87.5957 84.1642 87.5957 81.7601C87.5957 79.3559 88.3757 77.4014 89.3392 77.4014Z" fill="white"/>
</g>
<defs>
<clipPath id="clip0_443_804">
<rect width="133" height="133" fill="white"/>
</clipPath>
</defs>
</svg>
