<?xml version="1.0" encoding="UTF-8"?>
<svg xmlns="http://www.w3.org/2000/svg" xmlns:xlink="http://www.w3.org/1999/xlink" width="0"
    height="0">
    <symbol id="icarsoft-product" width="24" height="24" viewBox="0 0 24 24" fill="none">
        <g clip-path="url(#clip0_443_772)">
            <path
                d="M66.5 0C29.7768 0 0 29.7768 0 66.5C0 103.223 29.7768 133 66.5 133C103.223 133 133 103.223 133 66.5C133 29.7768 103.223 0 66.5 0ZM110.766 97.1669C110.032 97.745 109.087 98.1763 108.142 98.2772C106.536 98.4332 102.563 98.4607 100.993 98.2405C99.7913 98.0753 98.9104 97.378 98.5984 96.1942L34.4383 96.2676C34.0162 97.5615 32.9426 98.1671 31.6212 98.2772C29.9236 98.424 26.5376 98.4424 24.8492 98.2772C24.0508 98.1946 23.1241 97.8092 22.4634 97.3412C21.454 96.6255 16.7833 91.9181 16.297 90.9362C15.6638 89.6516 15.5996 85.3204 15.8106 83.8522C15.9115 83.1548 16.5631 82.2923 17.2788 82.1454C18.9856 81.7967 22.5368 82.5584 23.9499 81.9069C25.1153 81.3655 24.7666 79.7504 23.592 79.4935C21.5641 79.2733 19.0682 79.5853 17.1045 79.3467C16.4346 79.2641 15.9024 78.6768 15.8014 78.0253C15.6638 77.1536 15.7005 74.676 15.8014 73.7584C15.8657 73.0885 16.0859 72.4737 16.7925 72.2627C18.4075 71.7671 21.6375 72.4462 23.4636 72.1617C25.0694 71.914 24.9685 69.9044 23.6012 69.6933C21.7751 69.4089 19.2884 69.8952 17.3889 69.6933C16.5906 69.6016 15.9391 69.2162 15.8106 68.3719C15.673 67.5002 15.7005 64.7382 15.8106 63.8205C15.8565 63.4443 15.9391 63.114 16.2144 62.8479C17.2696 61.8385 22.133 62.6827 23.693 62.3065C24.9134 61.6917 24.7574 60.095 23.3259 59.8931C21.5182 59.6362 19.2333 60.0858 17.3981 59.884C16.5906 59.7922 15.9391 59.2416 15.8198 58.4249C15.7005 57.5624 15.7097 55.1766 15.8106 54.2956C15.9024 53.4514 16.3979 52.6714 17.3063 52.598C17.655 52.5705 17.912 52.7173 18.224 52.7173C19.5086 52.7173 22.9772 52.9284 23.9591 52.5063C25.1612 51.9924 24.8308 50.304 23.4636 50.1021C21.7017 49.8268 19.3435 50.3132 17.5266 50.1021C16.7099 50.0103 15.9207 49.0101 15.8106 48.221C15.5445 46.2481 15.572 42.7061 16.8292 41.1186C17.6917 40.0266 21.142 36.5397 22.2248 35.7322C22.8946 35.2366 24.0141 34.8329 24.84 34.7595C26.556 34.6127 30.1989 34.5851 31.8782 34.7778C33.016 34.9063 34.163 35.6037 34.3282 36.815L98.5984 36.8425C98.9563 35.5853 99.8188 34.9247 101.113 34.7778C102.636 34.6035 107.949 34.5943 109.289 34.9981C109.628 35.099 110.023 35.3009 110.326 35.4752C111.307 36.0717 115.969 40.7332 116.52 41.7151C117.355 43.2016 117.364 46.2298 117.171 47.9365C117.061 48.8817 116.648 49.5607 115.813 50.0287C114.262 50.4141 110.261 49.625 109.05 50.3132C107.986 50.9096 108.224 52.387 109.39 52.5705C111.225 52.855 113.712 52.3503 115.602 52.5705C116.483 52.6806 117.061 53.323 117.171 54.1763C117.29 55.0664 117.281 57.4064 117.18 58.3056C117.098 59.0397 116.749 59.7004 115.978 59.8656C114.161 60.2326 111.188 59.5077 109.445 59.9665C108.132 60.3061 108.197 61.9211 109.38 62.3891C111.307 62.5175 113.427 62.2239 115.327 62.3891C116.373 62.4808 117.024 62.7194 117.171 63.8572C117.3 64.7749 117.281 67.0414 117.18 67.9865C117.061 69.1427 116.62 69.6199 115.464 69.7209C113.739 69.8768 110.94 69.3997 109.408 69.7484C108.142 70.0328 108.188 71.9874 109.527 72.1984C111.317 72.4829 113.739 71.9966 115.602 72.1984C116.152 72.2627 116.666 72.437 116.942 72.9325C117.309 73.5932 117.272 76.6397 117.199 77.5206C117.098 78.7044 116.731 79.4018 115.473 79.521C113.702 79.6862 110.849 79.1907 109.279 79.5486C108.022 79.833 108.022 81.6958 109.279 81.9803C110.94 82.3565 113.702 81.7233 115.455 82.017C116.299 82.1546 117.07 83.2191 117.18 84.0266C117.446 85.9627 117.391 90.037 116.253 91.6428C115.428 92.8174 111.931 96.2676 110.766 97.2036V97.1669Z"
                fill="#DE1A00" />
            <path
                d="M98.1116 44.0734L35.1078 44.0092C33.8873 44.2844 33.0064 45.2663 32.9238 46.5234V86.4583C33.0339 87.6879 33.7405 88.5046 34.86 88.9451L97.5152 89.0185C98.7448 88.9084 99.5615 88.2018 100.002 87.0823L100.075 46.395C100.048 45.3581 99.0843 44.312 98.1116 44.0734Z"
                fill="#DE1A00" />
        </g>
        <defs>
            <clipPath>
                <rect width="24" height="24" fill="white" />
            </clipPath>
        </defs>
    </symbol>
    <symbol id="icarsoft-community" width="24" height="24" viewBox="0 0 24 24" fill="none">
        <g clip-path="url(#clip0_443_804)">
            <path
                d="M66.5 133C103.227 133 133 103.227 133 66.5C133 29.7731 103.227 0 66.5 0C29.7731 0 0 29.7731 0 66.5C0 103.227 29.7731 133 66.5 133Z"
                fill="#F2C641" />
            <path
                d="M53.864 71.914C53.864 81.3288 48.9456 89.1653 40.9806 92.6339L36.4843 82.2464C40.43 80.4846 42.5589 77.2637 42.5589 73.1895C42.5589 67.7205 38.7324 64.0775 33.0799 64.0775C26.3354 64.0775 21.2334 68.7574 21.2334 75.1991C21.2334 79.8147 23.7844 83.0356 28.4643 83.5861L24.0322 95.4326C16.1314 94.7077 9.9375 86.6235 9.9375 76.3553C9.9375 62.4442 20.6278 51.7447 34.0618 51.7447C45.8532 51.7447 53.8732 59.9482 53.8732 71.914H53.864Z"
                fill="white" />
            <path
                d="M36.7046 70.9505C36.0164 70.9505 35.4658 72.3361 35.4658 74.0521C35.4658 75.768 36.0164 77.1536 36.7046 77.1536C37.3928 77.1536 37.9434 75.768 37.9434 74.0521C37.9434 72.3361 37.3928 70.9505 36.7046 70.9505Z"
                fill="white" />
            <path
                d="M33.1441 71.7856C32.4558 71.7856 31.9053 73.1712 31.9053 74.8871C31.9053 76.6031 32.4558 77.9887 33.1441 77.9887C33.8323 77.9887 34.3829 76.6031 34.3829 74.8871C34.3829 73.1712 33.8323 71.7856 33.1441 71.7856Z"
                fill="white" />
            <path
                d="M82.0535 29.1437C82.0535 38.5585 77.135 46.395 69.1701 49.8636L64.6737 39.4761C68.6195 37.7143 70.7484 34.4934 70.7484 30.4192C70.7484 24.9502 66.9219 21.3072 61.2694 21.3072C54.5248 21.3072 49.4229 25.9871 49.4229 32.4288C49.4229 37.0444 51.9739 40.2652 56.6537 40.8158L52.2216 52.6623C44.3209 51.9374 38.127 43.8531 38.127 33.585C38.127 19.6738 48.8172 8.97437 62.2512 8.97437C74.0426 8.97437 82.0627 17.1779 82.0627 29.1437H82.0535Z"
                fill="white" />
            <path
                d="M64.8936 28.1802C64.2054 28.1802 63.6548 29.5658 63.6548 31.2817C63.6548 32.9977 64.2054 34.3833 64.8936 34.3833C65.5818 34.3833 66.1324 32.9977 66.1324 31.2817C66.1324 29.5658 65.5818 28.1802 64.8936 28.1802Z"
                fill="white" />
            <path
                d="M61.3335 29.0061C60.6453 29.0061 60.0947 30.3917 60.0947 32.1077C60.0947 33.8236 60.6453 35.2092 61.3335 35.2092C62.0217 35.2092 62.5723 33.8236 62.5723 32.1077C62.5723 30.3917 62.0217 29.0061 61.3335 29.0061Z"
                fill="white" />
            <path
                d="M88.055 49.2396C106.921 49.2396 121.952 64.2702 121.952 83.8247C121.952 98.2589 113.244 109.61 102.14 110.638L95.9098 93.9919C102.48 93.2211 106.068 88.6973 106.068 82.2097C106.068 73.1619 98.8921 66.5826 89.4222 66.5826C81.4848 66.5826 76.0984 71.7029 76.0984 79.3926C76.0984 85.1094 79.0898 89.6424 84.6414 92.1108L78.319 106.71C67.1332 101.847 60.2144 90.8261 60.2144 77.5941C60.2144 60.7741 71.4827 49.2487 88.0458 49.2487L88.055 49.2396Z"
                fill="white" />
            <path
                d="M84.3289 76.2267C85.2924 76.2267 86.0724 78.1813 86.0724 80.5854C86.0724 82.9896 85.2924 84.9441 84.3289 84.9441C83.3654 84.9441 82.5854 82.9896 82.5854 80.5854C82.5854 78.1813 83.3654 76.2267 84.3289 76.2267Z"
                fill="white" />
            <path
                d="M89.3392 77.4014C90.3027 77.4014 91.0827 79.3559 91.0827 81.7601C91.0827 84.1642 90.3027 86.1188 89.3392 86.1188C88.3757 86.1188 87.5957 84.1642 87.5957 81.7601C87.5957 79.3559 88.3757 77.4014 89.3392 77.4014Z"
                fill="white" />
        </g>
        <defs>
            <clipPath>
                <rect width="24" height="24" fill="white" />
            </clipPath>
        </defs>
    </symbol>
    <symbol id="icarsoft-brands" width="24" height="24" viewBox="0 0 24 24" fill="none">
        <g clip-path="url(#clip0_443_782)">
            <path
                d="M39.228 64.3712C34.9794 64.3712 31.6025 67.748 31.6025 72.1526C31.6025 75.401 33.5662 77.9519 36.0622 78.1813L37.4661 74.4375C35.9888 74.2631 35.1813 73.2446 35.1813 71.7855C35.1813 69.7484 36.7963 68.271 38.9252 68.271C40.7145 68.271 41.9258 69.4272 41.9258 71.1524C41.9258 72.437 41.2559 73.4556 40.0079 74.0154L41.4303 77.3004C43.9445 76.2085 45.5045 73.7309 45.5045 70.7486C45.5045 66.968 42.9719 64.3712 39.2463 64.3712H39.228Z"
                fill="#4E3FA6" />
            <path
                d="M88.7796 39.0265C88.1739 37.7326 86.8526 36.8884 85.4211 36.8884H47.661C46.2295 36.8884 44.9081 37.7235 44.3025 39.0265L36.1724 56.4062H96.9189L88.7888 39.0265H88.7796Z"
                fill="#4E3FA6" />
            <path
                d="M92.8813 64.3712C88.6327 64.3712 85.2559 67.748 85.2559 72.1526C85.2559 75.401 87.2196 77.9519 89.7155 78.1813L91.1195 74.4375C89.6421 74.2631 88.8346 73.2446 88.8346 71.7855C88.8346 69.7484 90.4496 68.271 92.5785 68.271C94.3678 68.271 95.5791 69.4272 95.5791 71.1524C95.5791 72.437 94.9092 73.4556 93.6613 74.0154L95.0836 77.3004C97.5979 76.2085 99.1578 73.7309 99.1578 70.7486C99.1578 66.968 96.6252 64.3712 92.8996 64.3712H92.8813Z"
                fill="#4E3FA6" />
            <path
                d="M66.5 0C29.7768 0 0 29.7768 0 66.5C0 103.223 29.7768 133 66.5 133C103.223 133 133 103.223 133 66.5C133 29.7768 103.223 0 66.5 0ZM113.115 61.4072L108.004 62.3891C108.077 62.8112 108.123 63.2333 108.123 63.6737V82.9071C108.123 82.9071 108.123 82.9346 108.123 82.9529V98.7727C108.123 101.021 106.297 102.838 104.058 102.838H97.4881C95.2399 102.838 93.423 101.012 93.423 98.7727V90.8445H39.5036V98.7727C39.5036 101.021 37.6775 102.838 35.4385 102.838H28.8684C26.6202 102.838 24.8033 101.012 24.8033 98.7727V83.5953C24.8033 83.5953 24.8033 83.5769 24.8033 83.5677V63.6737C24.8033 63.2241 24.8492 62.7928 24.9226 62.3707L19.9032 61.4072C19.114 61.2512 18.5176 60.3519 18.5176 59.2783V55.305C18.5176 54.1213 19.2425 53.1578 20.1326 53.1578H30.2631L38.2189 36.1634C39.9257 32.5113 43.6421 30.1439 47.6796 30.1439H85.4397C89.4772 30.1439 93.1936 32.5021 94.9004 36.1634L102.856 53.1578H112.904C113.794 53.1578 114.519 54.1213 114.519 55.305V59.2783C114.519 60.3428 113.932 61.2512 113.134 61.4072H113.115Z"
                fill="#4E3FA6" />
        </g>
        <defs>
            <clipPath>
                <rect width="24" height="24" fill="white" />
            </clipPath>
        </defs>
    </symbol>
    <symbol id="icarsoft-infos" width="24" height="24" viewBox="0 0 24 24" fill="none">
        <g clip-path="url(#clip0_443_794)">
            <path
                d="M66.5 0C29.7768 0 0 29.7768 0 66.5C0 103.223 29.7768 133 66.5 133C103.223 133 133 103.223 133 66.5C133 29.7768 103.223 0 66.5 0ZM69.2804 20.7749C75.612 20.7749 80.7507 25.9136 80.7507 32.2452C80.7507 38.5768 75.612 43.7155 69.2804 43.7155C62.9488 43.7155 57.8101 38.5768 57.8101 32.2452C57.8101 25.9136 62.9488 20.7749 69.2804 20.7749ZM86.2747 103.214C84.2101 106.233 78.4015 112.234 64.7565 112.234C53.5891 112.234 49.0835 104.26 50.4325 96.1667L56.2135 61.499C56.6631 58.8287 54.5985 56.397 51.8915 56.397H49.7442C47.8723 56.397 46.349 54.8737 46.349 53.0018C46.349 52.0658 46.7253 51.2124 47.3401 50.5976C47.9549 49.9828 48.7991 49.6066 49.7442 49.6066H72.6939C77.1903 49.6066 80.5671 53.6992 79.7229 58.1129L72.0424 97.9836C71.5561 100.516 73.5014 102.874 76.08 102.874C77.8143 102.874 79.2641 102.526 80.4387 102.049C81.6132 101.562 82.5125 100.947 83.1548 100.397C83.9532 99.7179 85.1094 99.7087 85.9077 100.379C86.7427 101.085 86.9079 102.306 86.2931 103.214H86.2747Z"
                fill="#0985B8" />
        </g>
        <defs>
            <clipPath>
                <rect width="24" height="24" fill="white" />
            </clipPath>
        </defs>
    </symbol>
    <symbol id="icarsoft-videos" width="24" height="24" viewBox="0 0 24 24" fill="none">
        <g clip-path="url(#clip0_443_788)">
            <path
                d="M66.5 0C29.7768 0 0 29.7768 0 66.5C0 103.223 29.7768 133 66.5 133C103.223 133 133 103.223 133 66.5C133 29.7768 103.223 0 66.5 0ZM48.7532 98.9563V34.0437L104.976 66.5L48.7532 98.9563Z"
                fill="#F27405" />
        </g>
        <defs>
            <clipPath>
                <rect width="24" height="24" fill="white" />
            </clipPath>
        </defs>
    </symbol>
</svg>