<svg width="0" height="0" class="hidden">
    <symbol fill="none" xmlns="http://www.w3.org/2000/svg" viewBox="0 0 24 24"
        id="icarsoft-category">
        <path
            d="M24 11.2226C24 17.7219 18.8044 22.141 11.9988 22.7821C3.80647 23.5515 0 19.9777 0 13.4785C0 6.97922 5.66578 1 12.2885 1C18.9112 1 24 3.78777 24 11.2226Z"
            fill="currentColor"></path>
        <path
            d="M18.7832 8.52985C17.9758 8.52985 17.3204 10.1683 17.3204 12.1891C17.3204 14.2099 17.9758 15.8483 18.7832 15.8483C19.5905 15.8483 20.2459 14.2099 20.2459 12.1891C20.2459 10.1683 19.5905 8.52985 18.7832 8.52985Z"
            fill="white"></path>
        <path
            d="M14.5754 9.51294C13.768 9.51294 13.1126 11.1514 13.1126 13.1722C13.1126 15.193 13.768 16.8314 14.5754 16.8314C15.3827 16.8314 16.0381 15.193 16.0381 13.1722C16.0381 11.1514 15.3827 9.51294 14.5754 9.51294Z"
            fill="white"></path>
    </symbol>
</svg>