<svg xmlns="http://www.w3.org/2000/svg" style="display:none">
    <symbol id="icarsoft-videos" viewBox="0 0 24 24">

        <path
            d="M12 0C5.37326 0 0 5.37326 0 12C0 18.6267 5.37326 24 12 24C18.6267 24 24 18.6267 24 12C24 5.37326 18.6267 0 12 0ZM8.79757 17.8568V6.14322L18.943 12L8.79757 17.8568Z"
            fill="#F27405" />

    </symbol>
    <symbol id="icarsoft-community" viewBox="0 0 24 24">

        <path
            d="M12 24C18.6274 24 24 18.6274 24 12C24 5.37259 18.6274 0 12 0C5.37259 0 0 5.37259 0 12C0 18.6274 5.37259 24 12 24Z"
            fill="#F2C641" />
        <path
            d="M9.71983 12.977C9.71983 14.6759 8.8323 16.09 7.39501 16.7159L6.58364 14.8415C7.29565 14.5235 7.67981 13.9423 7.67981 13.2071C7.67981 12.2203 6.98932 11.5629 5.96932 11.5629C4.75226 11.5629 3.8316 12.4074 3.8316 13.5698C3.8316 14.4027 4.29193 14.9839 5.13643 15.0832L4.33665 17.2209C2.91094 17.0901 1.79324 15.6313 1.79324 13.7784C1.79324 11.2681 3.72232 9.3374 6.1465 9.3374C8.27427 9.3374 9.72149 10.8177 9.72149 12.977H9.71983Z"
            fill="white" />
        <path
            d="M6.62338 12.8031C6.4992 12.8031 6.39984 13.0531 6.39984 13.3628C6.39984 13.6724 6.4992 13.9225 6.62338 13.9225C6.74757 13.9225 6.84693 13.6724 6.84693 13.3628C6.84693 13.0531 6.74757 12.8031 6.62338 12.8031Z"
            fill="white" />
        <path
            d="M5.9809 12.9537C5.85669 12.9537 5.75735 13.2038 5.75735 13.5134C5.75735 13.8231 5.85669 14.0731 5.9809 14.0731C6.10508 14.0731 6.20444 13.8231 6.20444 13.5134C6.20444 13.2038 6.10508 12.9537 5.9809 12.9537Z"
            fill="white" />
        <path
            d="M14.8067 5.25896C14.8067 6.95787 13.9191 8.37198 12.4818 8.99789L11.6704 7.12346C12.3825 6.80554 12.7666 6.22432 12.7666 5.48913C12.7666 4.50224 12.0761 3.84486 11.0561 3.84486C9.83907 3.84486 8.91842 4.68935 8.91842 5.85176C8.91842 6.68465 9.37876 7.26585 10.2232 7.36521L9.42345 9.50292C7.99776 9.37211 6.88007 7.91329 6.88007 6.0604C6.88007 3.55011 8.80913 1.61938 11.2333 1.61938C13.3611 1.61938 14.8083 3.09972 14.8083 5.25896H14.8067Z"
            fill="white" />
        <path
            d="M11.7101 5.08521C11.5859 5.08521 11.4866 5.33524 11.4866 5.64487C11.4866 5.95453 11.5859 6.20456 11.7101 6.20456C11.8343 6.20456 11.9337 5.95453 11.9337 5.64487C11.9337 5.33524 11.8343 5.08521 11.7101 5.08521Z"
            fill="white" />
        <path
            d="M11.0677 5.23413C10.9435 5.23413 10.8441 5.48416 10.8441 5.79382C10.8441 6.10345 10.9435 6.35349 11.0677 6.35349C11.1919 6.35349 11.2912 6.10345 11.2912 5.79382C11.2912 5.48416 11.1919 5.23413 11.0677 5.23413Z"
            fill="white" />
        <path
            d="M15.8896 8.88538C19.294 8.88538 22.0064 11.5977 22.0064 15.1263C22.0064 17.731 20.435 19.7793 18.4313 19.9648L17.307 16.961C18.4926 16.8219 19.1401 16.0056 19.1401 14.8349C19.1401 13.2022 17.8452 12.0149 16.1363 12.0149C14.704 12.0149 13.732 12.9389 13.732 14.3265C13.732 15.3581 14.2718 16.1761 15.2736 16.6215L14.1327 19.256C12.1143 18.3784 10.8658 16.3897 10.8658 14.002C10.8658 10.9668 12.8991 8.88702 15.888 8.88702L15.8896 8.88538Z"
            fill="white" />
        <path
            d="M15.2172 13.7552C15.3911 13.7552 15.5319 14.108 15.5319 14.5418C15.5319 14.9756 15.3911 15.3283 15.2172 15.3283C15.0434 15.3283 14.9026 14.9756 14.9026 14.5418C14.9026 14.108 15.0434 13.7552 15.2172 13.7552Z"
            fill="white" />
        <path
            d="M16.1213 13.9672C16.2952 13.9672 16.436 14.3199 16.436 14.7537C16.436 15.1875 16.2952 15.5402 16.1213 15.5402C15.9475 15.5402 15.8067 15.1875 15.8067 14.7537C15.8067 14.3199 15.9475 13.9672 16.1213 13.9672Z"
            fill="white" />

    </symbol>
    <symbol id="icarsoft-infos" viewBox="0 0 24 24">

        <path
            d="M12 0C5.37326 0 0 5.37326 0 12C0 18.6267 5.37326 24 12 24C18.6267 24 24 18.6267 24 12C24 5.37326 18.6267 0 12 0ZM12.5017 3.74885C13.6443 3.74885 14.5716 4.67614 14.5716 5.81868C14.5716 6.96123 13.6443 7.88851 12.5017 7.88851C11.3592 7.88851 10.4319 6.96123 10.4319 5.81868C10.4319 4.67614 11.3592 3.74885 12.5017 3.74885ZM15.5684 18.6251C15.1958 19.1699 14.1476 20.2528 11.6854 20.2528C9.67021 20.2528 8.85717 18.8138 9.1006 17.3534L10.1438 11.0976C10.2249 10.6157 9.85236 10.1769 9.36388 10.1769H8.9764C8.63861 10.1769 8.36373 9.90202 8.36373 9.56423C8.36373 9.39533 8.43163 9.24134 8.54257 9.13039C8.65352 9.01945 8.80585 8.95157 8.9764 8.95157H13.1177C13.9291 8.95157 14.5384 9.69008 14.3861 10.4865L13.0001 17.6813C12.9124 18.1382 13.2634 18.5637 13.7287 18.5637C14.0417 18.5637 14.3033 18.5009 14.5153 18.4149C14.7272 18.327 14.8895 18.216 15.0054 18.1168C15.1494 17.9942 15.3581 17.9925 15.5021 18.1135C15.6528 18.2409 15.6826 18.4612 15.5717 18.6251H15.5684Z"
            fill="#0985B8" />

    </symbol>
    <symbol id="icarsoft-product" viewBox="0 0 24 24">

        <path
            d="M12 0C5.37326 0 0 5.37326 0 12C0 18.6267 5.37326 24 12 24C18.6267 24 24 18.6267 24 12C24 5.37326 18.6267 0 12 0ZM19.9878 17.5339C19.8554 17.6382 19.6849 17.716 19.5143 17.7342C19.2245 17.7624 18.5076 17.7673 18.2243 17.7276C18.0075 17.6978 17.8485 17.572 17.7922 17.3584L6.21443 17.3716C6.13826 17.6051 5.94453 17.7144 5.70608 17.7342C5.39975 17.7607 4.78874 17.764 4.48407 17.7342C4.33999 17.7193 4.17277 17.6498 4.05355 17.5653C3.8714 17.4362 3.02857 16.5867 2.94081 16.4095C2.82655 16.1777 2.81497 15.3962 2.85304 15.1312C2.87125 15.0054 2.98883 14.8497 3.11798 14.8232C3.42597 14.7603 4.06679 14.8978 4.32179 14.7802C4.53208 14.6825 4.46916 14.391 4.2572 14.3447C3.89127 14.305 3.44088 14.3613 3.08653 14.3182C2.96564 14.3033 2.86961 14.1973 2.85138 14.0798C2.82655 13.9225 2.83317 13.4754 2.85138 13.3098C2.86298 13.1889 2.90272 13.078 3.03023 13.0399C3.32165 12.9505 3.90451 13.073 4.23403 13.0217C4.5238 12.977 4.50559 12.6143 4.25886 12.5762C3.92934 12.5249 3.48061 12.6127 3.13785 12.5762C2.99379 12.5597 2.87623 12.4901 2.85304 12.3378C2.82821 12.1805 2.83317 11.6821 2.85304 11.5165C2.86132 11.4486 2.87623 11.389 2.92591 11.341C3.11632 11.1588 3.99392 11.3112 4.27543 11.2433C4.49565 11.1323 4.4675 10.8442 4.20918 10.8078C3.88298 10.7614 3.47067 10.8425 3.13951 10.8061C2.99379 10.7896 2.87623 10.6902 2.8547 10.5428C2.83317 10.3872 2.83483 9.95668 2.85304 9.7977C2.86961 9.64537 2.95902 9.50461 3.12294 9.49137C3.18586 9.48641 3.23224 9.5129 3.28854 9.5129C3.52035 9.5129 4.14626 9.55099 4.32345 9.47482C4.54037 9.38209 4.48075 9.07741 4.23403 9.04098C3.9161 8.9913 3.49056 9.07907 3.16269 9.04098C3.01532 9.02441 2.87291 8.84393 2.85304 8.70153C2.80502 8.34552 2.80999 7.70636 3.03685 7.4199C3.19249 7.22284 3.8151 6.59363 4.01049 6.44792C4.13136 6.35848 4.33337 6.28564 4.48241 6.27239C4.79206 6.2459 5.44943 6.24092 5.75246 6.27569C5.95777 6.29888 6.16475 6.42473 6.19456 6.64331L17.7922 6.64827C17.8568 6.42141 18.0124 6.3022 18.246 6.27569C18.5208 6.24424 19.4795 6.24258 19.7213 6.31545C19.7825 6.33365 19.8538 6.37009 19.9085 6.40154C20.0855 6.50918 20.9267 7.35035 21.0262 7.52754C21.1768 7.79578 21.1785 8.34222 21.1436 8.6502C21.1238 8.82076 21.0493 8.94328 20.8986 9.02774C20.6187 9.09728 19.8967 8.95489 19.6782 9.07907C19.4862 9.18669 19.5291 9.45329 19.7395 9.48641C20.0707 9.53774 20.5195 9.44667 20.8605 9.48641C21.0195 9.50627 21.1238 9.6222 21.1436 9.77617C21.1651 9.93679 21.1635 10.359 21.1453 10.5213C21.1305 10.6538 21.0675 10.773 20.9284 10.8028C20.6005 10.869 20.064 10.7382 19.7495 10.821C19.5125 10.8823 19.5243 11.1737 19.7377 11.2582C20.0855 11.2814 20.468 11.2284 20.8109 11.2582C20.9996 11.2747 21.1171 11.3178 21.1436 11.5231C21.1669 11.6887 21.1635 12.0977 21.1453 12.2682C21.1238 12.4769 21.0442 12.563 20.8356 12.5812C20.5243 12.6093 20.0192 12.5233 19.7428 12.5862C19.5143 12.6375 19.5226 12.9902 19.7643 13.0283C20.0873 13.0796 20.5243 12.9919 20.8605 13.0283C20.9598 13.0399 21.0525 13.0713 21.1023 13.1608C21.1685 13.28 21.1619 13.8297 21.1487 13.9887C21.1305 14.2023 21.0642 14.3281 20.8372 14.3497C20.5177 14.3795 20.0028 14.2901 19.7195 14.3546C19.4927 14.406 19.4927 14.7421 19.7195 14.7934C20.0192 14.8613 20.5177 14.7471 20.834 14.8001C20.9863 14.8249 21.1254 15.017 21.1453 15.1627C21.1933 15.5121 21.1833 16.2473 20.978 16.537C20.8291 16.749 20.1981 17.3716 19.9878 17.5405V17.5339Z"
            fill="#DE1A00" />
        <path
            d="M17.7044 7.95311L6.33527 7.94153C6.11503 7.99119 5.95607 8.16837 5.94116 8.39522V15.6015C5.96103 15.8234 6.08854 15.9708 6.29055 16.0503L17.5968 16.0635C17.8186 16.0436 17.966 15.9161 18.0455 15.7141L18.0587 8.37205C18.0538 8.18494 17.8799 7.99617 17.7044 7.95311Z"
            fill="#DE1A00" />

    </symbol>
    <symbol id="icarsoft-brands" viewBox="0 0 24 24">

        <path
            d="M7.07873 11.6158C6.31206 11.6158 5.7027 12.2252 5.7027 13.02C5.7027 13.6062 6.05705 14.0665 6.50746 14.1079L6.76079 13.4323C6.49421 13.4008 6.3485 13.2171 6.3485 12.9538C6.3485 12.5862 6.63992 12.3196 7.02409 12.3196C7.34697 12.3196 7.56555 12.5282 7.56555 12.8395C7.56555 13.0713 7.44466 13.2551 7.21946 13.3562L7.47614 13.9489C7.92983 13.7519 8.21133 13.3048 8.21133 12.7667C8.21133 12.0844 7.75432 11.6158 7.08203 11.6158H7.07873Z"
            fill="#4E3FA6" />
        <path
            d="M16.0204 7.04232C15.9111 6.80883 15.6726 6.65649 15.4143 6.65649H8.60047C8.34216 6.65649 8.10371 6.80719 7.99443 7.04232L6.52734 10.1785H17.4891L16.022 7.04232H16.0204Z"
            fill="#4E3FA6" />
        <path
            d="M16.7605 11.6158C15.9939 11.6158 15.3845 12.2252 15.3845 13.02C15.3845 13.6062 15.7389 14.0665 16.1893 14.1079L16.4426 13.4323C16.176 13.4008 16.0303 13.2171 16.0303 12.9538C16.0303 12.5862 16.3217 12.3196 16.7059 12.3196C17.0288 12.3196 17.2474 12.5282 17.2474 12.8395C17.2474 13.0713 17.1265 13.2551 16.9013 13.3562L17.1579 13.9489C17.6117 13.7519 17.8931 13.3048 17.8931 12.7667C17.8931 12.0844 17.4361 11.6158 16.7638 11.6158H16.7605Z"
            fill="#4E3FA6" />
        <path
            d="M12 0C5.37326 0 0 5.37326 0 12C0 18.6267 5.37326 24 12 24C18.6267 24 24 18.6267 24 12C24 5.37326 18.6267 0 12 0ZM20.4117 11.081L19.4894 11.2582C19.5026 11.3344 19.5109 11.4105 19.5109 11.49V14.9607C19.5109 14.9607 19.5109 14.9656 19.5109 14.9689V17.8236C19.5109 18.2294 19.1814 18.5572 18.7774 18.5572H17.5918C17.1861 18.5572 16.8583 18.2277 16.8583 17.8236V16.393H7.12847V17.8236C7.12847 18.2294 6.79895 18.5572 6.39492 18.5572H5.20934C4.80365 18.5572 4.47578 18.2277 4.47578 17.8236V15.0849C4.47578 15.0849 4.47578 15.0815 4.47578 15.0799V11.49C4.47578 11.4089 4.48407 11.331 4.49731 11.2549L3.59155 11.081C3.44914 11.0528 3.34152 10.8906 3.34152 10.6968V9.97985C3.34152 9.76625 3.47233 9.59238 3.63295 9.59238H5.46101L6.89664 6.52573C7.20464 5.8667 7.87527 5.4395 8.60384 5.4395H15.4177C16.1463 5.4395 16.8169 5.86504 17.1249 6.52573L18.5605 9.59238H20.3737C20.5343 9.59238 20.6651 9.76625 20.6651 9.97985V10.6968C20.6651 10.8889 20.5592 11.0528 20.4152 11.081H20.4117Z"
            fill="#4E3FA6" />

    </symbol>
</svg>