<?xml version="1.0" encoding="UTF-8"?>
<svg xmlns="http://www.w3.org/2000/svg" style="display:none">
    <symbol id="icarsoft-category" viewBox="0 0 24 24">
        <path
            d="M24 11.2226C24 17.7219 18.8044 22.141 11.9988 22.7821C3.80647 23.5515 0 19.9777 0 13.4785C0 6.97922 5.66578 1 12.2885 1C18.9112 1 24 3.78777 24 11.2226Z"
            fill="currentColor" />
        <path
            d="M18.7832 8.52985C17.9758 8.52985 17.3204 10.1683 17.3204 12.1891C17.3204 14.2099 17.9758 15.8483 18.7832 15.8483C19.5905 15.8483 20.2459 14.2099 20.2459 12.1891C20.2459 10.1683 19.5905 8.52985 18.7832 8.52985Z"
            fill="white" />
        <path
            d="M14.5754 9.51294C13.768 9.51294 13.1126 11.1514 13.1126 13.1722C13.1126 15.193 13.768 16.8314 14.5754 16.8314C15.3827 16.8314 16.0381 15.193 16.0381 13.1722C16.0381 11.1514 15.3827 9.51294 14.5754 9.51294Z"
            fill="white" />
    </symbol>
    <symbol id="icarsoft-house" viewBox="0 0 24 24">
        <path
            d="M15 21V13C15 12.7348 14.8946 12.4804 14.7071 12.2929C14.5196 12.1054 14.2652 12 14 12H10C9.73478 12 9.48043 12.1054 9.29289 12.2929C9.10536 12.4804 9 12.7348 9 13V21"
            stroke="currentColor" stroke-width="2" stroke-linecap="round" stroke-linejoin="round" />
        <path
            d="M3 9.99999C2.99993 9.70906 3.06333 9.42161 3.18579 9.15771C3.30824 8.8938 3.4868 8.65979 3.709 8.47199L10.709 2.47199C11.07 2.1669 11.5274 1.99951 12 1.99951C12.4726 1.99951 12.93 2.1669 13.291 2.47199L20.291 8.47199C20.5132 8.65979 20.6918 8.8938 20.8142 9.15771C20.9367 9.42161 21.0001 9.70906 21 9.99999V19C21 19.5304 20.7893 20.0391 20.4142 20.4142C20.0391 20.7893 19.5304 21 19 21H5C4.46957 21 3.96086 20.7893 3.58579 20.4142C3.21071 20.0391 3 19.5304 3 19V9.99999Z"
            stroke="currentColor" stroke-width="2" stroke-linecap="round" stroke-linejoin="round" />
    </symbol>
</svg>