<svg width="24" height="24" viewBox="0 0 24 24" fill="none" xmlns="http://www.w3.org/2000/svg">
    <path
        d="M12 0C5.37326 0 0 5.37326 0 12C0 18.6267 5.37326 24 12 24C18.6267 24 24 18.6267 24 12C24 5.37326 18.6267 0 12 0ZM12.5017 3.74885C13.6443 3.74885 14.5716 4.67614 14.5716 5.81868C14.5716 6.96123 13.6443 7.88851 12.5017 7.88851C11.3592 7.88851 10.4319 6.96123 10.4319 5.81868C10.4319 4.67614 11.3592 3.74885 12.5017 3.74885ZM15.5684 18.6251C15.1958 19.1699 14.1476 20.2528 11.6854 20.2528C9.67021 20.2528 8.85717 18.8138 9.1006 17.3534L10.1438 11.0976C10.2249 10.6157 9.85236 10.1769 9.36388 10.1769H8.9764C8.63861 10.1769 8.36373 9.90202 8.36373 9.56423C8.36373 9.39533 8.43163 9.24134 8.54257 9.13039C8.65352 9.01945 8.80585 8.95157 8.9764 8.95157H13.1177C13.9291 8.95157 14.5384 9.69008 14.3861 10.4865L13.0001 17.6813C12.9124 18.1382 13.2634 18.5637 13.7287 18.5637C14.0417 18.5637 14.3033 18.5009 14.5153 18.4149C14.7272 18.327 14.8895 18.216 15.0054 18.1168C15.1494 17.9942 15.3581 17.9925 15.5021 18.1135C15.6528 18.2409 15.6826 18.4612 15.5717 18.6251H15.5684Z"
        fill="#0985B8" />
</svg>