<svg width="133" height="133" viewBox="0 0 133 133" fill="none" xmlns="http://www.w3.org/2000/svg">
<g clip-path="url(#clip0_443_794)">
<path d="M66.5 0C29.7768 0 0 29.7768 0 66.5C0 103.223 29.7768 133 66.5 133C103.223 133 133 103.223 133 66.5C133 29.7768 103.223 0 66.5 0ZM69.2804 20.7749C75.612 20.7749 80.7507 25.9136 80.7507 32.2452C80.7507 38.5768 75.612 43.7155 69.2804 43.7155C62.9488 43.7155 57.8101 38.5768 57.8101 32.2452C57.8101 25.9136 62.9488 20.7749 69.2804 20.7749ZM86.2747 103.214C84.2101 106.233 78.4015 112.234 64.7565 112.234C53.5891 112.234 49.0835 104.26 50.4325 96.1667L56.2135 61.499C56.6631 58.8287 54.5985 56.397 51.8915 56.397H49.7442C47.8723 56.397 46.349 54.8737 46.349 53.0018C46.349 52.0658 46.7253 51.2124 47.3401 50.5976C47.9549 49.9828 48.7991 49.6066 49.7442 49.6066H72.6939C77.1903 49.6066 80.5671 53.6992 79.7229 58.1129L72.0424 97.9836C71.5561 100.516 73.5014 102.874 76.08 102.874C77.8143 102.874 79.2641 102.526 80.4387 102.049C81.6132 101.562 82.5125 100.947 83.1548 100.397C83.9532 99.7179 85.1094 99.7087 85.9077 100.379C86.7427 101.085 86.9079 102.306 86.2931 103.214H86.2747Z" fill="#0985B8"/>
</g>
<defs>
<clipPath id="clip0_443_794">
<rect width="133" height="133" fill="white"/>
</clipPath>
</defs>
</svg>
