<svg width="30" height="30" viewBox="0 0 30 30" fill="none" xmlns="http://www.w3.org/2000/svg">
<path d="M24.375 23.75C26.1009 23.75 27.5 22.3509 27.5 20.625C27.5 18.8991 26.1009 17.5 24.375 17.5C22.6491 17.5 21.25 18.8991 21.25 20.625C21.25 22.3509 22.6491 23.75 24.375 23.75Z" stroke="black" stroke-width="1.5"/>
<path d="M5.625 23.75C7.35089 23.75 8.75 22.3509 8.75 20.625C8.75 18.8991 7.35089 17.5 5.625 17.5C3.89911 17.5 2.5 18.8991 2.5 20.625C2.5 22.3509 3.89911 23.75 5.625 23.75Z" stroke="black" stroke-width="1.5"/>
<path d="M25.2937 9.8375C26.895 11.7862 27.4525 13.64 27.4987 14.62C26.629 14.2228 25.6836 14.0185 24.7275 14.0213C21.6712 14.0213 18.9275 16.0537 18.2725 18.7612C18.115 19.4087 18.0375 19.7325 17.8675 19.8662C17.6975 20 17.4225 20 16.8737 20H13.2762C12.7225 20 12.4462 20 12.2762 19.865C12.105 19.7275 12.03 19.4062 11.8812 18.7612C11.2612 16.0887 8.74625 13.765 6.1275 13.9612C5.86375 13.9825 5.73125 13.9925 5.64 13.9713C5.55125 13.9513 5.46 13.9 5.2775 13.7962C4.75125 13.5 4.21375 13.2175 3.6975 12.9037C3.34362 12.6881 3.04891 12.3878 2.83988 12.03C2.63084 11.6721 2.51405 11.2679 2.5 10.8537C2.48375 10.3737 2.75875 9.89875 3.315 10.0287L11.34 11.9175C11.9437 12.06 12.245 12.13 12.5037 12.0825C12.7625 12.035 13.0812 11.8175 13.7162 11.3825C15.3262 10.2825 17.8787 9.24125 20.4225 10.16C21.1187 10.4113 21.4675 10.5375 21.665 10.5438C21.865 10.55 22.155 10.465 22.7362 10.2963C23.569 10.0503 24.4262 9.8965 25.2925 9.8375C24.29 8.615 22.875 7.35625 20.9175 6.25" stroke="black" stroke-width="1.5" stroke-linecap="round" stroke-linejoin="round"/>
</svg>
