<svg width="133" height="133" viewBox="0 0 133 133" fill="none" xmlns="http://www.w3.org/2000/svg">
<g clip-path="url(#clip0_443_772)">
<path d="M66.5 0C29.7768 0 0 29.7768 0 66.5C0 103.223 29.7768 133 66.5 133C103.223 133 133 103.223 133 66.5C133 29.7768 103.223 0 66.5 0ZM110.766 97.1669C110.032 97.745 109.087 98.1763 108.142 98.2772C106.536 98.4332 102.563 98.4607 100.993 98.2405C99.7913 98.0753 98.9104 97.378 98.5984 96.1942L34.4383 96.2676C34.0162 97.5615 32.9426 98.1671 31.6212 98.2772C29.9236 98.424 26.5376 98.4424 24.8492 98.2772C24.0508 98.1946 23.1241 97.8092 22.4634 97.3412C21.454 96.6255 16.7833 91.9181 16.297 90.9362C15.6638 89.6516 15.5996 85.3204 15.8106 83.8522C15.9115 83.1548 16.5631 82.2923 17.2788 82.1454C18.9856 81.7967 22.5368 82.5584 23.9499 81.9069C25.1153 81.3655 24.7666 79.7504 23.592 79.4935C21.5641 79.2733 19.0682 79.5853 17.1045 79.3467C16.4346 79.2641 15.9024 78.6768 15.8014 78.0253C15.6638 77.1536 15.7005 74.676 15.8014 73.7584C15.8657 73.0885 16.0859 72.4737 16.7925 72.2627C18.4075 71.7671 21.6375 72.4462 23.4636 72.1617C25.0694 71.914 24.9685 69.9044 23.6012 69.6933C21.7751 69.4089 19.2884 69.8952 17.3889 69.6933C16.5906 69.6016 15.9391 69.2162 15.8106 68.3719C15.673 67.5002 15.7005 64.7382 15.8106 63.8205C15.8565 63.4443 15.9391 63.114 16.2144 62.8479C17.2696 61.8385 22.133 62.6827 23.693 62.3065C24.9134 61.6917 24.7574 60.095 23.3259 59.8931C21.5182 59.6362 19.2333 60.0858 17.3981 59.884C16.5906 59.7922 15.9391 59.2416 15.8198 58.4249C15.7005 57.5624 15.7097 55.1766 15.8106 54.2956C15.9024 53.4514 16.3979 52.6714 17.3063 52.598C17.655 52.5705 17.912 52.7173 18.224 52.7173C19.5086 52.7173 22.9772 52.9284 23.9591 52.5063C25.1612 51.9924 24.8308 50.304 23.4636 50.1021C21.7017 49.8268 19.3435 50.3132 17.5266 50.1021C16.7099 50.0103 15.9207 49.0101 15.8106 48.221C15.5445 46.2481 15.572 42.7061 16.8292 41.1186C17.6917 40.0266 21.142 36.5397 22.2248 35.7322C22.8946 35.2366 24.0141 34.8329 24.84 34.7595C26.556 34.6127 30.1989 34.5851 31.8782 34.7778C33.016 34.9063 34.163 35.6037 34.3282 36.815L98.5984 36.8425C98.9563 35.5853 99.8188 34.9247 101.113 34.7778C102.636 34.6035 107.949 34.5943 109.289 34.9981C109.628 35.099 110.023 35.3009 110.326 35.4752C111.307 36.0717 115.969 40.7332 116.52 41.7151C117.355 43.2016 117.364 46.2298 117.171 47.9365C117.061 48.8817 116.648 49.5607 115.813 50.0287C114.262 50.4141 110.261 49.625 109.05 50.3132C107.986 50.9096 108.224 52.387 109.39 52.5705C111.225 52.855 113.712 52.3503 115.602 52.5705C116.483 52.6806 117.061 53.323 117.171 54.1763C117.29 55.0664 117.281 57.4064 117.18 58.3056C117.098 59.0397 116.749 59.7004 115.978 59.8656C114.161 60.2326 111.188 59.5077 109.445 59.9665C108.132 60.3061 108.197 61.9211 109.38 62.3891C111.307 62.5175 113.427 62.2239 115.327 62.3891C116.373 62.4808 117.024 62.7194 117.171 63.8572C117.3 64.7749 117.281 67.0414 117.18 67.9865C117.061 69.1427 116.62 69.6199 115.464 69.7209C113.739 69.8768 110.94 69.3997 109.408 69.7484C108.142 70.0328 108.188 71.9874 109.527 72.1984C111.317 72.4829 113.739 71.9966 115.602 72.1984C116.152 72.2627 116.666 72.437 116.942 72.9325C117.309 73.5932 117.272 76.6397 117.199 77.5206C117.098 78.7044 116.731 79.4018 115.473 79.521C113.702 79.6862 110.849 79.1907 109.279 79.5486C108.022 79.833 108.022 81.6958 109.279 81.9803C110.94 82.3565 113.702 81.7233 115.455 82.017C116.299 82.1546 117.07 83.2191 117.18 84.0266C117.446 85.9627 117.391 90.037 116.253 91.6428C115.428 92.8174 111.931 96.2676 110.766 97.2036V97.1669Z" fill="#DE1A00"/>
<path d="M98.1116 44.0734L35.1078 44.0092C33.8873 44.2844 33.0064 45.2663 32.9238 46.5234V86.4583C33.0339 87.6879 33.7405 88.5046 34.86 88.9451L97.5152 89.0185C98.7448 88.9084 99.5615 88.2018 100.002 87.0823L100.075 46.395C100.048 45.3581 99.0843 44.312 98.1116 44.0734Z" fill="#DE1A00"/>
</g>
<defs>
<clipPath id="clip0_443_772">
<rect width="133" height="133" fill="white"/>
</clipPath>
</defs>
</svg>
