<svg width="24" height="24" viewBox="0 0 24 24" fill="none" xmlns="http://www.w3.org/2000/svg">
    <path
        d="M12 0C5.37326 0 0 5.37326 0 12C0 18.6267 5.37326 24 12 24C18.6267 24 24 18.6267 24 12C24 5.37326 18.6267 0 12 0ZM19.9878 17.5339C19.8554 17.6382 19.6849 17.716 19.5143 17.7342C19.2245 17.7624 18.5076 17.7673 18.2243 17.7276C18.0075 17.6978 17.8485 17.572 17.7922 17.3584L6.21443 17.3716C6.13826 17.6051 5.94453 17.7144 5.70608 17.7342C5.39975 17.7607 4.78874 17.764 4.48407 17.7342C4.33999 17.7193 4.17277 17.6498 4.05355 17.5653C3.8714 17.4362 3.02857 16.5867 2.94081 16.4095C2.82655 16.1777 2.81497 15.3962 2.85304 15.1312C2.87125 15.0054 2.98883 14.8497 3.11798 14.8232C3.42597 14.7603 4.06679 14.8978 4.32179 14.7802C4.53208 14.6825 4.46916 14.391 4.2572 14.3447C3.89127 14.305 3.44088 14.3613 3.08653 14.3182C2.96564 14.3033 2.86961 14.1973 2.85138 14.0798C2.82655 13.9225 2.83317 13.4754 2.85138 13.3098C2.86298 13.1889 2.90272 13.078 3.03023 13.0399C3.32165 12.9505 3.90451 13.073 4.23403 13.0217C4.5238 12.977 4.50559 12.6143 4.25886 12.5762C3.92934 12.5249 3.48061 12.6127 3.13785 12.5762C2.99379 12.5597 2.87623 12.4901 2.85304 12.3378C2.82821 12.1805 2.83317 11.6821 2.85304 11.5165C2.86132 11.4486 2.87623 11.389 2.92591 11.341C3.11632 11.1588 3.99392 11.3112 4.27543 11.2433C4.49565 11.1323 4.4675 10.8442 4.20918 10.8078C3.88298 10.7614 3.47067 10.8425 3.13951 10.8061C2.99379 10.7896 2.87623 10.6902 2.8547 10.5428C2.83317 10.3872 2.83483 9.95668 2.85304 9.7977C2.86961 9.64537 2.95902 9.50461 3.12294 9.49137C3.18586 9.48641 3.23224 9.5129 3.28854 9.5129C3.52035 9.5129 4.14626 9.55099 4.32345 9.47482C4.54037 9.38209 4.48075 9.07741 4.23403 9.04098C3.9161 8.9913 3.49056 9.07907 3.16269 9.04098C3.01532 9.02441 2.87291 8.84393 2.85304 8.70153C2.80502 8.34552 2.80999 7.70636 3.03685 7.4199C3.19249 7.22284 3.8151 6.59363 4.01049 6.44792C4.13136 6.35848 4.33337 6.28564 4.48241 6.27239C4.79206 6.2459 5.44943 6.24092 5.75246 6.27569C5.95777 6.29888 6.16475 6.42473 6.19456 6.64331L17.7922 6.64827C17.8568 6.42141 18.0124 6.3022 18.246 6.27569C18.5208 6.24424 19.4795 6.24258 19.7213 6.31545C19.7825 6.33365 19.8538 6.37009 19.9085 6.40154C20.0855 6.50918 20.9267 7.35035 21.0262 7.52754C21.1768 7.79578 21.1785 8.34222 21.1436 8.6502C21.1238 8.82076 21.0493 8.94328 20.8986 9.02774C20.6187 9.09728 19.8967 8.95489 19.6782 9.07907C19.4862 9.18669 19.5291 9.45329 19.7395 9.48641C20.0707 9.53774 20.5195 9.44667 20.8605 9.48641C21.0195 9.50627 21.1238 9.6222 21.1436 9.77617C21.1651 9.93679 21.1635 10.359 21.1453 10.5213C21.1305 10.6538 21.0675 10.773 20.9284 10.8028C20.6005 10.869 20.064 10.7382 19.7495 10.821C19.5125 10.8823 19.5243 11.1737 19.7377 11.2582C20.0855 11.2814 20.468 11.2284 20.8109 11.2582C20.9996 11.2747 21.1171 11.3178 21.1436 11.5231C21.1669 11.6887 21.1635 12.0977 21.1453 12.2682C21.1238 12.4769 21.0442 12.563 20.8356 12.5812C20.5243 12.6093 20.0192 12.5233 19.7428 12.5862C19.5143 12.6375 19.5226 12.9902 19.7643 13.0283C20.0873 13.0796 20.5243 12.9919 20.8605 13.0283C20.9598 13.0399 21.0525 13.0713 21.1023 13.1608C21.1685 13.28 21.1619 13.8297 21.1487 13.9887C21.1305 14.2023 21.0642 14.3281 20.8372 14.3497C20.5177 14.3795 20.0028 14.2901 19.7195 14.3546C19.4927 14.406 19.4927 14.7421 19.7195 14.7934C20.0192 14.8613 20.5177 14.7471 20.834 14.8001C20.9863 14.8249 21.1254 15.017 21.1453 15.1627C21.1933 15.5121 21.1833 16.2473 20.978 16.537C20.8291 16.749 20.1981 17.3716 19.9878 17.5405V17.5339Z"
        fill="#DE1A00" />
    <path
        d="M17.7044 7.95311L6.33527 7.94153C6.11503 7.99119 5.95607 8.16837 5.94116 8.39522V15.6015C5.96103 15.8234 6.08854 15.9708 6.29055 16.0503L17.5968 16.0635C17.8186 16.0436 17.966 15.9161 18.0455 15.7141L18.0587 8.37205C18.0538 8.18494 17.8799 7.99617 17.7044 7.95311Z"
        fill="#DE1A00" />
</svg>