<svg width="30" height="30" viewBox="0 0 30 30" fill="none" xmlns="http://www.w3.org/2000/svg">
    <path
        d="M23.75 16.875H22.5C21.3212 16.875 20.7325 16.875 20.3662 16.5087C20 16.1425 20 15.5538 20 14.375V10.625M23.75 16.875V10.625M23.75 16.875C24.915 16.875 25.4975 16.875 25.9562 17.065C26.2598 17.1906 26.5356 17.3749 26.7678 17.6072C27.0001 17.8394 27.1844 18.1152 27.31 18.4187C27.5 18.8775 27.5 19.46 27.5 20.625C27.5 21.8038 27.5 22.3925 27.1338 22.7588C26.7675 23.125 26.1788 23.125 25 23.125H24.375M20 10.625H16.25M20 10.625H23.75M23.75 10.625C23.75 9.46 23.75 8.8775 23.56 8.41875C23.4344 8.11523 23.2501 7.83944 23.0178 7.60715C22.7856 7.37487 22.5098 7.19064 22.2062 7.065C21.7475 6.875 21.165 6.875 20 6.875H16.25M16.25 10.625V23.125M16.25 10.625V6.875M16.25 23.125H19.375M16.25 23.125H10M16.25 23.125V16.875H5C3.82125 16.875 3.2325 16.875 2.86625 17.2413C2.5 17.6075 2.5 18.1962 2.5 19.375V20.625C2.5 21.8038 2.5 22.3925 2.86625 22.7588C3.2325 23.125 3.82125 23.125 5 23.125M16.25 6.875C16.25 5.69625 16.25 5.1075 15.8837 4.74125C15.5175 4.375 14.9288 4.375 13.75 4.375"
        stroke="black" stroke-width="1.5" stroke-linecap="round" stroke-linejoin="round" />
    <path
        d="M24.375 23.125C24.375 23.788 24.1116 24.4239 23.6428 24.8928C23.1739 25.3616 22.538 25.625 21.875 25.625C21.212 25.625 20.5761 25.3616 20.1072 24.8928C19.6384 24.4239 19.375 23.788 19.375 23.125C19.375 22.462 19.6384 21.8261 20.1072 21.3572C20.5761 20.8884 21.212 20.625 21.875 20.625C22.538 20.625 23.1739 20.8884 23.6428 21.3572C24.1116 21.8261 24.375 22.462 24.375 23.125ZM10 23.125C10 23.788 9.73661 24.4239 9.26777 24.8928C8.79893 25.3616 8.16304 25.625 7.5 25.625C6.83696 25.625 6.20107 25.3616 5.73223 24.8928C5.26339 24.4239 5 23.788 5 23.125C5 22.462 5.26339 21.8261 5.73223 21.3572C6.20107 20.8884 6.83696 20.625 7.5 20.625C8.16304 20.625 8.79893 20.8884 9.26777 21.3572C9.73661 21.8261 10 22.462 10 23.125Z"
        stroke="black" stroke-width="1.5" stroke-linecap="round" stroke-linejoin="round" />
</svg>